<mxfile host="Electron" agent="Mozilla/5.0 (Windows NT 10.0; Win64; x64) AppleWebKit/537.36 (KHTML, like Gecko) draw.io/25.0.1 Chrome/128.0.6613.186 Electron/32.2.6 Safari/537.36" version="25.0.1">
  <diagram name="Page-1" id="CXfByPdHBdF7VZIjRAMK">
    <mxGraphModel dx="1434" dy="836" grid="1" gridSize="10" guides="1" tooltips="1" connect="1" arrows="1" fold="1" page="1" pageScale="1" pageWidth="827" pageHeight="1169" math="0" shadow="0">
      <root>
        <mxCell id="0" />
        <mxCell id="1" parent="0" />
        <mxCell id="l62ZjVf1n6DzaK6ILrs4-1" value="Getting weather data from location" style="rounded=0;whiteSpace=wrap;html=1;" vertex="1" parent="1">
          <mxGeometry x="354" y="50" width="120" height="60" as="geometry" />
        </mxCell>
        <mxCell id="l62ZjVf1n6DzaK6ILrs4-2" value="" style="endArrow=none;html=1;rounded=0;exitX=0.5;exitY=0;exitDx=0;exitDy=0;" edge="1" parent="1" source="l62ZjVf1n6DzaK6ILrs4-12">
          <mxGeometry width="50" height="50" relative="1" as="geometry">
            <mxPoint x="414" y="160" as="sourcePoint" />
            <mxPoint x="414" y="110" as="targetPoint" />
          </mxGeometry>
        </mxCell>
        <mxCell id="l62ZjVf1n6DzaK6ILrs4-3" value="" style="endArrow=none;html=1;rounded=0;" edge="1" parent="1">
          <mxGeometry width="50" height="50" relative="1" as="geometry">
            <mxPoint x="120" y="140" as="sourcePoint" />
            <mxPoint x="700" y="140" as="targetPoint" />
          </mxGeometry>
        </mxCell>
        <mxCell id="l62ZjVf1n6DzaK6ILrs4-4" value="" style="endArrow=none;html=1;rounded=0;" edge="1" parent="1">
          <mxGeometry width="50" height="50" relative="1" as="geometry">
            <mxPoint x="119.5" y="170" as="sourcePoint" />
            <mxPoint x="119.5" y="140" as="targetPoint" />
          </mxGeometry>
        </mxCell>
        <mxCell id="l62ZjVf1n6DzaK6ILrs4-5" value="Input" style="rounded=0;whiteSpace=wrap;html=1;" vertex="1" parent="1">
          <mxGeometry x="60" y="170" width="120" height="60" as="geometry" />
        </mxCell>
        <mxCell id="l62ZjVf1n6DzaK6ILrs4-6" value="" style="endArrow=none;html=1;rounded=0;" edge="1" parent="1">
          <mxGeometry width="50" height="50" relative="1" as="geometry">
            <mxPoint x="700" y="170" as="sourcePoint" />
            <mxPoint x="700" y="140" as="targetPoint" />
          </mxGeometry>
        </mxCell>
        <mxCell id="l62ZjVf1n6DzaK6ILrs4-7" value="Output" style="rounded=0;whiteSpace=wrap;html=1;" vertex="1" parent="1">
          <mxGeometry x="640" y="170" width="120" height="60" as="geometry" />
        </mxCell>
        <mxCell id="l62ZjVf1n6DzaK6ILrs4-8" value="" style="endArrow=none;html=1;rounded=0;" edge="1" parent="1">
          <mxGeometry width="50" height="50" relative="1" as="geometry">
            <mxPoint x="60" y="340" as="sourcePoint" />
            <mxPoint x="60" y="230" as="targetPoint" />
          </mxGeometry>
        </mxCell>
        <mxCell id="l62ZjVf1n6DzaK6ILrs4-9" value="" style="endArrow=none;html=1;rounded=0;" edge="1" parent="1">
          <mxGeometry width="50" height="50" relative="1" as="geometry">
            <mxPoint x="60" y="340" as="sourcePoint" />
            <mxPoint x="110" y="340" as="targetPoint" />
          </mxGeometry>
        </mxCell>
        <mxCell id="l62ZjVf1n6DzaK6ILrs4-10" value="Input Location" style="rounded=0;whiteSpace=wrap;html=1;" vertex="1" parent="1">
          <mxGeometry x="110" y="310" width="120" height="60" as="geometry" />
        </mxCell>
        <mxCell id="l62ZjVf1n6DzaK6ILrs4-12" value="Process" style="rounded=0;whiteSpace=wrap;html=1;" vertex="1" parent="1">
          <mxGeometry x="354" y="170" width="120" height="60" as="geometry" />
        </mxCell>
        <mxCell id="l62ZjVf1n6DzaK6ILrs4-13" value="" style="endArrow=none;html=1;rounded=0;" edge="1" parent="1">
          <mxGeometry width="50" height="50" relative="1" as="geometry">
            <mxPoint x="353" y="710" as="sourcePoint" />
            <mxPoint x="353" y="230" as="targetPoint" />
          </mxGeometry>
        </mxCell>
        <mxCell id="l62ZjVf1n6DzaK6ILrs4-14" value="" style="endArrow=none;html=1;rounded=0;" edge="1" parent="1">
          <mxGeometry width="50" height="50" relative="1" as="geometry">
            <mxPoint x="354" y="370" as="sourcePoint" />
            <mxPoint x="390" y="370" as="targetPoint" />
          </mxGeometry>
        </mxCell>
        <mxCell id="l62ZjVf1n6DzaK6ILrs4-15" value="Check location with request(&quot;openjweatherapiforecast&quot;)" style="rounded=0;whiteSpace=wrap;html=1;" vertex="1" parent="1">
          <mxGeometry x="390" y="340" width="120" height="60" as="geometry" />
        </mxCell>
        <mxCell id="l62ZjVf1n6DzaK6ILrs4-16" value="" style="endArrow=none;html=1;rounded=0;" edge="1" parent="1" target="l62ZjVf1n6DzaK6ILrs4-17">
          <mxGeometry width="50" height="50" relative="1" as="geometry">
            <mxPoint x="350" y="480" as="sourcePoint" />
            <mxPoint x="390" y="480" as="targetPoint" />
          </mxGeometry>
        </mxCell>
        <mxCell id="l62ZjVf1n6DzaK6ILrs4-17" value="API Validation" style="rounded=0;whiteSpace=wrap;html=1;" vertex="1" parent="1">
          <mxGeometry x="390" y="450" width="120" height="60" as="geometry" />
        </mxCell>
        <mxCell id="l62ZjVf1n6DzaK6ILrs4-18" value="" style="endArrow=none;html=1;rounded=0;" edge="1" parent="1" target="l62ZjVf1n6DzaK6ILrs4-19">
          <mxGeometry width="50" height="50" relative="1" as="geometry">
            <mxPoint x="354" y="600" as="sourcePoint" />
            <mxPoint x="394" y="600" as="targetPoint" />
          </mxGeometry>
        </mxCell>
        <mxCell id="l62ZjVf1n6DzaK6ILrs4-19" value="Generate forecast_data(location)" style="rounded=0;whiteSpace=wrap;html=1;" vertex="1" parent="1">
          <mxGeometry x="394" y="570" width="120" height="60" as="geometry" />
        </mxCell>
        <mxCell id="l62ZjVf1n6DzaK6ILrs4-20" value="Process forecast_data" style="rounded=0;whiteSpace=wrap;html=1;" vertex="1" parent="1">
          <mxGeometry x="394" y="680" width="120" height="60" as="geometry" />
        </mxCell>
        <mxCell id="l62ZjVf1n6DzaK6ILrs4-21" value="" style="endArrow=none;html=1;rounded=0;entryX=0;entryY=0.5;entryDx=0;entryDy=0;" edge="1" parent="1" target="l62ZjVf1n6DzaK6ILrs4-20">
          <mxGeometry width="50" height="50" relative="1" as="geometry">
            <mxPoint x="354" y="710" as="sourcePoint" />
            <mxPoint x="384" y="710" as="targetPoint" />
          </mxGeometry>
        </mxCell>
        <mxCell id="l62ZjVf1n6DzaK6ILrs4-22" value="" style="endArrow=none;html=1;rounded=0;" edge="1" parent="1">
          <mxGeometry width="50" height="50" relative="1" as="geometry">
            <mxPoint x="640" y="370" as="sourcePoint" />
            <mxPoint x="640" y="230" as="targetPoint" />
          </mxGeometry>
        </mxCell>
        <mxCell id="l62ZjVf1n6DzaK6ILrs4-23" value="" style="endArrow=none;html=1;rounded=0;" edge="1" parent="1" target="l62ZjVf1n6DzaK6ILrs4-24">
          <mxGeometry width="50" height="50" relative="1" as="geometry">
            <mxPoint x="640" y="370" as="sourcePoint" />
            <mxPoint x="680" y="370" as="targetPoint" />
          </mxGeometry>
        </mxCell>
        <mxCell id="l62ZjVf1n6DzaK6ILrs4-24" value="Output forecast_data" style="rounded=0;whiteSpace=wrap;html=1;" vertex="1" parent="1">
          <mxGeometry x="680" y="340" width="120" height="60" as="geometry" />
        </mxCell>
      </root>
    </mxGraphModel>
  </diagram>
</mxfile>
